<?xml version="1.0"?>
<svg xmlns="http://www.w3.org/2000/svg" xmlns:xlink="http://www.w3.org/1999/xlink" xmlns:svgjs="http://svgjs.com/svgjs" version="1.1" width="512" height="512" x="0" y="0" viewBox="0 0 512 512" style="enable-background:new 0 0 512 512" xml:space="preserve" class=""><g><path xmlns="http://www.w3.org/2000/svg" d="M240.308,160.739,186.667,32H172l54.421,130.609Q233.272,161.387,240.308,160.739Z" fill="#ffffff" data-original="#000000" style="" class=""/><path xmlns="http://www.w3.org/2000/svg" d="M321.182,173.162,380,32H357.333L301.4,166.238A166.679,166.679,0,0,1,321.182,173.162Z" fill="#ffffff" data-original="#000000" style="" class=""/><path xmlns="http://www.w3.org/2000/svg" d="M176.375,180.1,114.667,32H100l64.622,155.092Q170.345,183.369,176.375,180.1Z" fill="#ffffff" data-original="#000000" style="" class=""/><path xmlns="http://www.w3.org/2000/svg" d="M340,32H325.333L271.692,160.739q7.029.654,13.887,1.87Z" fill="#ffffff" data-original="#000000" style="" class=""/><path xmlns="http://www.w3.org/2000/svg" d="M335.625,180.1q6.029,3.26,11.753,6.991L412,32H397.333Z" fill="#ffffff" data-original="#000000" style="" class=""/><path xmlns="http://www.w3.org/2000/svg" d="M241.627,296.906a8,8,0,0,1-6.037,4.479l-35.21,5.3,25.42,26.758a8,8,0,0,1,1.921,7.605l-9.186,33.841,33.342-20.055a8,8,0,0,1,8.246,0l33.342,20.055-9.186-33.841a8,8,0,0,1,1.921-7.605l25.42-26.758-35.21-5.3a8,8,0,0,1-6.037-4.479L256,266.646Z" fill="#ffffff" data-original="#000000" style="" class=""/><path xmlns="http://www.w3.org/2000/svg" d="M144,328A112,112,0,1,0,256,216,112.127,112.127,0,0,0,144,328Zm119.227-83.433L283,286.2l46.19,6.947a8,8,0,0,1,4.611,13.42l-32.9,34.632,13.222,48.71a8,8,0,0,1-11.844,8.951L256,371.021l-46.277,27.834a8,8,0,0,1-11.844-8.951l13.222-48.71-32.9-34.632a8,8,0,0,1,4.611-13.42L229,286.2l19.772-41.628a8,8,0,0,1,14.454,0Z" fill="#ffffff" data-original="#000000" style="" class=""/><path xmlns="http://www.w3.org/2000/svg" d="M104,328c0,83.813,68.187,152,152,152s152-68.187,152-152S339.813,176,256,176,104,244.187,104,328Zm280,0A128,128,0,1,1,256,200,128.146,128.146,0,0,1,384,328Z" fill="#ffffff" data-original="#000000" style="" class=""/><path xmlns="http://www.w3.org/2000/svg" d="M210.6,166.238,154.667,32H132l58.818,141.162A166.679,166.679,0,0,1,210.6,166.238Z" fill="#ffffff" data-original="#000000" style="" class=""/></g></svg>
