<?xml version="1.0"?>
<svg xmlns="http://www.w3.org/2000/svg" xmlns:xlink="http://www.w3.org/1999/xlink" xmlns:svgjs="http://svgjs.com/svgjs" version="1.1" width="512" height="512" x="0" y="0" viewBox="0 0 512 512" style="enable-background:new 0 0 512 512" xml:space="preserve"><g><g xmlns="http://www.w3.org/2000/svg" fill="#233d91"><path d="m202.771 30.005h14.983v14.983h-14.983z" fill="#f9fbff" data-original="#233d91" style=""/><path d="m232.737 30.005h14.983v14.983h-14.983z" fill="#f9fbff" data-original="#233d91" style=""/><path d="m202.771 59.971h14.983v14.983h-14.983z" fill="#f9fbff" data-original="#233d91" style=""/><path d="m232.737 59.971h14.983v14.983h-14.983z" fill="#f9fbff" data-original="#233d91" style=""/><path d="m253.714 118.905h14.983v14.983h-14.983z" fill="#f9fbff" data-original="#233d91" style=""/><path d="m283.68 118.905h14.983v14.983h-14.983z" fill="#f9fbff" data-original="#233d91" style=""/><path d="m253.714 148.871h14.983v14.983h-14.983z" fill="#f9fbff" data-original="#233d91" style=""/><path d="m283.68 148.871h14.983v14.983h-14.983z" fill="#f9fbff" data-original="#233d91" style=""/><path d="m253.714 177.838h14.983v14.983h-14.983z" fill="#f9fbff" data-original="#233d91" style=""/><path d="m283.68 177.838h14.983v14.983h-14.983z" fill="#f9fbff" data-original="#233d91" style=""/><path d="m253.714 206.806h14.983v14.983h-14.983z" fill="#f9fbff" data-original="#233d91" style=""/><path d="m283.68 206.806h14.983v14.983h-14.983z" fill="#f9fbff" data-original="#233d91" style=""/><path d="m45.551 226.349h25.971v14.983h-25.971z" transform="matrix(.893 -.451 .451 .893 -99.167 51.529)" fill="#f9fbff" data-original="#233d91" style=""/><path d="m59.066 253.095h25.971v14.983h-25.971z" transform="matrix(.893 -.451 .451 .893 -109.776 60.498)" fill="#f9fbff" data-original="#233d91" style=""/><path d="m72.13 278.949h25.971v14.983h-25.971z" transform="matrix(.893 -.451 .451 .893 -120.032 69.168)" fill="#f9fbff" data-original="#233d91" style=""/><path d="m512 220.849-82.935-41.908-51.794 107.928c-13.79-7.471-28.225-13.628-43.149-18.416v-179.514h-50.942v-88.9h-114.87v271.479c-11.679 4.237-23.031 9.331-33.978 15.25l-50.28-107.867-82.947 41.915 59.358 126.016c-39.126 46.109-60.463 103.976-60.463 165.129h14.983c0-6.358.252-12.657.739-18.892l81.345.43 24.003-24.963 41.208 12.68 17.877-45.971-32.347-51.31-19.454-7.074v-27.532l-34.224-15.658c42.75-38.779 99.454-62.438 161.581-62.438 50.521 0 97.447 15.656 136.209 42.354l-97.564 7.395-32.824 51.581 48.154 61.592 44.487 4.943 32.34 51.543 63.888-2.366 9.388-37.551 26.059-9.434c6.88 22.357 10.592 46.088 10.592 70.672h14.983c0-61.093-21.295-118.905-60.348-164.993zm-398.628 138.101v28.405l24.497 8.908 25.587 40.586-10.091 25.948-36.704-11.293-25.94 26.978-73.344-.388c7.265-51.371 30.799-97.578 65.216-133.224zm-38.476-27.804c-1.199 1.199-2.375 2.416-3.547 3.635l-50.479-107.165 56.136-28.366 44.316 95.071c-16.648 10.322-32.229 22.628-46.426 36.825zm144.356-72.32c-12.222 1.734-24.232 4.342-35.959 7.786v-251.59h84.904v73.917h-48.945zm99.888 5.318c-20.48-5.204-41.747-7.894-63.428-7.894-7.21 0-14.371.314-21.476.901v-153.229h84.904zm71.126 30.278 45.692-95.211 56.148 28.373-51.866 107.368c-1.226-1.277-2.459-2.55-3.714-3.806-14.149-14.15-29.675-26.422-46.26-36.724zm90.719 132.693-33.798 12.236-8.592 34.368-43.99 1.629-31.587-50.342-45.412-5.046-37.749-48.284 23.113-36.32 106.935-8.106c31.566 26.395 56.284 60.711 71.08 99.865z" fill="#f9fbff" data-original="#233d91" style=""/><path d="m447.206 220.855h14.983v25.971h-14.983z" transform="matrix(.451 -.893 .893 .451 40.928 534.216)" fill="#f9fbff" data-original="#233d91" style=""/><path d="m433.692 247.601h14.983v25.97h-14.983z" transform="matrix(.451 -.893 .893 .451 9.632 536.831)" fill="#f9fbff" data-original="#233d91" style=""/><path d="m420.628 273.455h14.983v25.971h-14.983z" transform="matrix(.451 -.893 .893 .451 -20.628 539.344)" fill="#f9fbff" data-original="#233d91" style=""/><path d="m390.488 146.087v14.984h35.744v-35.745h-14.983v9.569l-29.291-29.291-10.595 10.595 29.888 29.888z" fill="#f9fbff" data-original="#233d91" style=""/><path d="m117.938 146.087h-10.763l29.888-29.888-10.595-10.595-29.291 29.291v-9.569h-14.983v35.745h35.744z" fill="#f9fbff" data-original="#233d91" style=""/><path d="m239.33 310.193-60.898-4.871-18.189 35.08 42.699 71.914 38.803-6.467-17.976-38.067 22.15-10.152zm-35.582 50.282 15.986 33.852-9.143 1.524-33.215-55.942 9.779-18.859 38.989 3.12 3.4 24.483z" fill="#f9fbff" data-original="#233d91" style=""/></g></g></svg>
