<?xml version="1.0"?>
<svg xmlns="http://www.w3.org/2000/svg" xmlns:xlink="http://www.w3.org/1999/xlink" xmlns:svgjs="http://svgjs.com/svgjs" version="1.1" width="512" height="512" x="0" y="0" viewBox="0 0 24 24" style="enable-background:new 0 0 512 512" xml:space="preserve" class=""><g><path xmlns="http://www.w3.org/2000/svg" d="m12 24c6.624 0 12-5.376 12-12s-5.376-12-12-12-12 5.376-12 12 5.376 12 12 12zm4.283-12.857h1.718v-1.717h1.718v1.718h1.703v1.718h-1.703v1.718h-1.718v-1.718h-1.718zm-3.687-3.581-1.626 1.578c-2.08-2.033-6.127-.552-6.127 2.855 0 4.621 6.559 4.937 7.128 1.2h-3.392v-2.061h5.657c.642 3.356-1.525 6.866-5.657 6.866v.001c-3.329 0-6.001-2.686-6.001-6.001.001-5.338 6.333-7.861 10.018-4.438z" fill="#eb3b5a" data-original="#f44336" style="" class=""/></g></svg>
