<?xml version="1.0"?>
<svg xmlns="http://www.w3.org/2000/svg" xmlns:xlink="http://www.w3.org/1999/xlink" xmlns:svgjs="http://svgjs.com/svgjs" version="1.1" width="512" height="512" x="0" y="0" viewBox="0 0 512 512" style="enable-background:new 0 0 512 512" xml:space="preserve"><g><g xmlns="http://www.w3.org/2000/svg"><path d="m500.503 0h-296.725v371.774h230.168c-29.631 16.346-49.706 47.887-49.706 84.121 0 20.948 6.715 40.324 18.102 56.105h98.161zm-68.59 168.634h-154.376v-29.972h154.375v29.972zm0-63.707h-154.376v-29.972h154.375v29.972z" fill="#ffffff" data-original="#000000" style=""/><path d="m173.806 0h-14.62c-36.26 0-65.761 29.5-65.761 65.761v306.013h80.381z" fill="#ffffff" data-original="#000000" style=""/><path d="m82.277 471.421v-30.068h273.813c1.677-14.411 5.813-28.081 11.979-40.579h-300.959c-30.714 0-55.613 24.899-55.613 55.613s24.899 55.613 55.613 55.613h301.45c-6.295-12.481-10.561-26.151-12.356-40.579z" fill="#ffffff" data-original="#000000" style=""/></g></g></svg>
