<?xml version="1.0"?>
<svg xmlns="http://www.w3.org/2000/svg" xmlns:xlink="http://www.w3.org/1999/xlink" xmlns:svgjs="http://svgjs.com/svgjs" version="1.1" width="512" height="512" x="0" y="0" viewBox="0 0 512 512" style="enable-background:new 0 0 512 512" xml:space="preserve"><g><g xmlns="http://www.w3.org/2000/svg"><g><path d="m256 84.976-24.367 49.373-54.486 7.917 39.426 38.432-9.307 54.266 48.734-25.621 48.734 25.621-9.307-54.266 39.426-38.432-54.486-7.917z" fill="#fffdfd" data-original="#000000" style=""/><path d="m256 0c-91.743 0-166.115 74.372-166.115 166.115s74.372 166.115 166.115 166.115 166.115-74.372 166.115-166.115-74.372-166.115-166.115-166.115zm101.114 162.461-29.453 28.71 6.953 40.54c1.885 10.993-2.549 21.895-11.572 28.451-5.099 3.705-11.065 5.587-17.071 5.587-4.623 0-9.27-1.115-13.564-3.373l-36.407-19.14-36.407 19.14c-9.872 5.191-21.611 4.342-30.635-2.214-9.023-6.556-13.458-17.458-11.572-28.451l6.953-40.54-29.454-28.71c-7.987-7.785-10.808-19.211-7.361-29.819s12.445-18.194 23.483-19.798l40.704-5.915 18.203-36.884c4.937-10.002 14.932-16.215 26.086-16.215s21.149 6.213 26.086 16.215l18.203 36.884 40.704 5.915c11.038 1.604 20.036 9.19 23.483 19.798s.626 22.034-7.362 29.819z" fill="#fffdfd" data-original="#000000" style=""/><g><path d="m332.346 346.806c-19.919 8.425-40.848 13.422-62.387 14.929l36.84 150.265 41.137-41.538 52.012 18.701-38.631-157.57c-9.177 5.848-18.849 10.932-28.971 15.213z" fill="#fffdfd" data-original="#000000" style=""/></g></g><g><path d="m179.654 346.806c-10.109-4.276-19.768-9.352-28.936-15.191l-38.625 157.548 52.012-18.701 41.137 41.538 36.839-150.262c-21.553-1.504-42.496-6.502-62.427-14.932z" fill="#fffdfd" data-original="#000000" style=""/></g></g></g></svg>
