<?xml version="1.0"?>
<svg xmlns="http://www.w3.org/2000/svg" xmlns:xlink="http://www.w3.org/1999/xlink" xmlns:svgjs="http://svgjs.com/svgjs" version="1.1" width="512" height="512" x="0" y="0" viewBox="0 0 512 512" style="enable-background:new 0 0 512 512" xml:space="preserve"><g>
<g xmlns="http://www.w3.org/2000/svg">
	<g>
		<circle cx="261.448" cy="47.701" r="47.701" fill="#ffffff" data-original="#000000" style=""/>
	</g>
</g>
<g xmlns="http://www.w3.org/2000/svg">
	<g>
		<path d="M232.731,451.226l-16.314-105.489h-52.096l17.531,113.356c2.174,14.052,15.327,23.678,29.374,21.505    C225.274,478.425,234.902,465.275,232.731,451.226z" fill="#ffffff" data-original="#000000" style=""/>
	</g>
</g>
<g xmlns="http://www.w3.org/2000/svg">
	<g>
		<path d="M301.653,345.735l0.04,0.025l-16.31,105.464c-2.172,14.049,7.456,27.201,21.506,29.373    c14.058,2.173,27.202-7.464,29.374-21.505l17.531-113.356H301.653z" fill="#ffffff" data-original="#000000" style=""/>
	</g>
</g>
<g xmlns="http://www.w3.org/2000/svg">
	<g>
		<path d="M410.19,272.952h-0.078h-30.91c13.299-2.839,21.163-16.454,17.183-29.309c-5.805-18.741-24.275-78.379-29.848-96.369    c-6.793-21.932-26.783-36.667-49.743-36.667c-12.189,0-91.309,0-103.105,0c-22.959,0-42.949,14.735-49.742,36.667    c-5.573,17.996-24.047,77.64-29.848,96.369c-3.989,12.885,3.914,26.476,17.183,29.309c-17.315,0-31.145,0-49.473,0    c-14.555,0-26.355,11.792-26.371,26.343c0,0.01-0.001,0.019-0.001,0.029s0.001,0.019,0.001,0.029    c0.015,13.819,10.66,25.141,24.197,26.247c0,7.293,0,160.509,0,167.287c0,10.557,8.558,19.114,19.115,19.114    c10.557,0,19.115-8.557,19.115-19.114c0-5.583,0-159.117,0-167.191h237.666c0,14.307,0,159.117,0,167.191    c0,10.557,8.558,19.114,19.115,19.114s19.115-8.557,19.115-19.114c0-8.258,0-154.559,0-167.438    c12.875-1.744,22.802-12.772,22.802-26.125C436.562,284.759,424.755,272.952,410.19,272.952z M288.76,227.436    c-3.668,0-7.122,0.881-10.2,2.406c3.418,6.096,5.375,13.122,5.375,20.609c0,8-2.242,15.755-6.502,22.5h-30.881    c10.391-2.22,18.187-11.445,18.187-22.5c0-12.712-10.304-23.016-23.016-23.016h-54.413c7.215-23.295,5.655-18.255,12.926-41.734    v22.535h41.486c8.707,0,16.798,2.638,23.52,7.156c6.721-4.518,14.812-7.156,23.52-7.156h41.053v-23.933    c5.041,16.275,8.155,26.329,13.359,43.131H288.76z" fill="#ffffff" data-original="#000000" style=""/>
	</g>
</g>
<g xmlns="http://www.w3.org/2000/svg">
</g>
<g xmlns="http://www.w3.org/2000/svg">
</g>
<g xmlns="http://www.w3.org/2000/svg">
</g>
<g xmlns="http://www.w3.org/2000/svg">
</g>
<g xmlns="http://www.w3.org/2000/svg">
</g>
<g xmlns="http://www.w3.org/2000/svg">
</g>
<g xmlns="http://www.w3.org/2000/svg">
</g>
<g xmlns="http://www.w3.org/2000/svg">
</g>
<g xmlns="http://www.w3.org/2000/svg">
</g>
<g xmlns="http://www.w3.org/2000/svg">
</g>
<g xmlns="http://www.w3.org/2000/svg">
</g>
<g xmlns="http://www.w3.org/2000/svg">
</g>
<g xmlns="http://www.w3.org/2000/svg">
</g>
<g xmlns="http://www.w3.org/2000/svg">
</g>
<g xmlns="http://www.w3.org/2000/svg">
</g>
</g></svg>
